<svg width="108" height="108" viewBox="0 0 108 108" fill="none" xmlns="http://www.w3.org/2000/svg">
<rect width="108" height="108" rx="54" fill="url(#paint0_linear_150_876)"/>
<rect x="11" y="11" width="86" height="86" rx="43" fill="white"/>
<path d="M40.4364 62.6667C40.6748 61.605 40.2414 60.0883 39.4831 59.33L34.2181 54.065C32.5714 52.4183 31.9214 50.6633 32.3981 49.1467C32.8964 47.63 34.4348 46.59 36.7314 46.2L43.4914 45.0733C44.4664 44.9 45.6581 44.0333 46.1131 43.145L49.8398 35.67C50.9231 33.525 52.3964 32.3333 53.9998 32.3333C55.6031 32.3333 57.0764 33.525 58.1598 35.67L61.8864 43.145C62.1681 43.7083 62.7531 44.25 63.3814 44.6183L40.0464 67.9533C39.7431 68.2567 39.2231 67.975 39.3098 67.5417L40.4364 62.6667Z" fill="url(#paint1_linear_150_876)"/>
<path d="M68.5164 59.33C67.7364 60.11 67.3031 61.605 67.5631 62.6667L69.0581 69.1883C69.6864 71.8967 69.2964 73.9333 67.9531 74.9083C67.4114 75.2983 66.7614 75.4933 66.0031 75.4933C64.8981 75.4933 63.5981 75.0817 62.1681 74.2367L55.8198 70.4667C54.8231 69.8817 53.1764 69.8817 52.1798 70.4667L45.8314 74.2367C43.4264 75.645 41.3681 75.8833 40.0464 74.9083C39.5481 74.54 39.1798 74.0417 38.9414 73.3917L65.2881 47.045C66.2848 46.0483 67.6931 45.5933 69.0581 45.8317L71.2464 46.2C73.5431 46.59 75.0814 47.63 75.5798 49.1467C76.0564 50.6633 75.4064 52.4183 73.7598 54.065L68.5164 59.33Z" fill="url(#paint2_linear_150_876)"/>
<rect x="11" y="11" width="86" height="86" rx="43" stroke="url(#paint3_linear_150_876)" stroke-width="2"/>
<defs>
<linearGradient id="paint0_linear_150_876" x1="6.3245e-07" y1="53.5046" x2="108" y2="53.5046" gradientUnits="userSpaceOnUse">
<stop stop-color="white"/>
<stop offset="1" stop-color="white" stop-opacity="0"/>
</linearGradient>
<linearGradient id="paint1_linear_150_876" x1="75.7323" y1="75.4988" x2="26.2819" y2="66.9892" gradientUnits="userSpaceOnUse">
<stop stop-color="#00796D"/>
<stop offset="1" stop-color="#38C682"/>
</linearGradient>
<linearGradient id="paint2_linear_150_876" x1="75.7323" y1="75.4988" x2="26.2819" y2="66.9892" gradientUnits="userSpaceOnUse">
<stop stop-color="#00796D"/>
<stop offset="1" stop-color="#38C682"/>
</linearGradient>
<linearGradient id="paint3_linear_150_876" x1="98" y1="98" x2="-2.11054" y2="80.9" gradientUnits="userSpaceOnUse">
<stop stop-color="#00796D"/>
<stop offset="1" stop-color="#38C682"/>
</linearGradient>
</defs>
</svg>
