<svg width="108" height="108" viewBox="0 0 108 108" fill="none" xmlns="http://www.w3.org/2000/svg">
<rect width="108" height="108" rx="54" fill="url(#paint0_linear_150_866)"/>
<rect x="11" y="11" width="86" height="86" rx="43" fill="white"/>
<path d="M63.0785 32.3333H44.9218C37.0352 32.3333 32.3335 37.035 32.3335 44.9217V63.0567C32.3335 70.965 37.0352 75.6667 44.9218 75.6667H63.0568C70.9435 75.6667 75.6452 70.965 75.6452 63.0783V44.9217C75.6668 37.035 70.9652 32.3333 63.0785 32.3333ZM52.9818 57.315L44.9218 65.375H49.6668C50.5552 65.375 51.2918 66.1117 51.2918 67C51.2918 67.8883 50.5552 68.625 49.6668 68.625H41.0002C40.7835 68.625 40.5668 68.5817 40.3718 68.495C39.9818 68.3217 39.6568 68.0183 39.4835 67.6067C39.4185 67.4117 39.3752 67.2167 39.3752 67V58.3333C39.3752 57.445 40.1118 56.7083 41.0002 56.7083C41.8885 56.7083 42.6252 57.445 42.6252 58.3333V63.0783L50.6852 55.0183C51.3135 54.39 52.3535 54.39 52.9818 55.0183C53.6102 55.6467 53.6102 56.6867 52.9818 57.315ZM68.6252 49.6667C68.6252 50.555 67.8885 51.2917 67.0002 51.2917C66.1118 51.2917 65.3752 50.555 65.3752 49.6667V44.9217L57.3152 52.9817C56.9902 53.3067 56.5785 53.4583 56.1668 53.4583C55.7552 53.4583 55.3435 53.3067 55.0185 52.9817C54.3902 52.3533 54.3902 51.3133 55.0185 50.685L63.0785 42.625H58.3335C57.4452 42.625 56.7085 41.8883 56.7085 41C56.7085 40.1117 57.4452 39.375 58.3335 39.375H67.0002C67.2168 39.375 67.4118 39.4183 67.6285 39.505C68.0185 39.6783 68.3435 39.9817 68.5168 40.3933C68.5818 40.5883 68.6252 40.7833 68.6252 41V49.6667Z" fill="url(#paint1_linear_150_866)"/>
<rect x="11" y="11" width="86" height="86" rx="43" stroke="url(#paint2_linear_150_866)" stroke-width="2"/>
<defs>
<linearGradient id="paint0_linear_150_866" x1="6.3245e-07" y1="53.5046" x2="108" y2="53.5046" gradientUnits="userSpaceOnUse">
<stop stop-color="white"/>
<stop offset="1" stop-color="white" stop-opacity="0"/>
</linearGradient>
<linearGradient id="paint1_linear_150_866" x1="75.6452" y1="75.6667" x2="26.3716" y2="67.2543" gradientUnits="userSpaceOnUse">
<stop stop-color="#00796D"/>
<stop offset="1" stop-color="#38C682"/>
</linearGradient>
<linearGradient id="paint2_linear_150_866" x1="98" y1="98" x2="-2.11054" y2="80.9" gradientUnits="userSpaceOnUse">
<stop stop-color="#00796D"/>
<stop offset="1" stop-color="#38C682"/>
</linearGradient>
</defs>
</svg>
